Barlow-Bold.ufo
<glyph name="quotedbl" format="1">
  <advance width="412"/>
  <unicode hex="0022"/>
  <outline>
    <contour>
      <point x="388" y="460" type="line"/>
      <point x="408" y="700" type="line"/>
      <point x="230" y="700" type="line"/>
      <point x="250" y="460" type="line"/>
    </contour>
    <contour>
      <point x="162" y="460" type="line"/>
      <point x="182" y="700" type="line"/>
      <point x="4" y="700" type="line"/>
      <point x="24" y="460" type="line"/>
    </contour>
  </outline>
</glyph>
<glyph name="dollar" format="1">
  <advance width="440"/>
  <unicode hex="0024"/>
  <outline>
    <contour>
      <point x="279" y="-68" type="line"/>
      <point x="276" y="53" type="line"/>
      <point x="163" y="53" type="line"/>
      <point x="160" y="-68" type="line"/>
    </contour>
    <contour>
      <point x="276" y="657" type="line"/>
      <point x="279" y="778" type="line"/>
      <point x="162" y="778" type="line"/>
      <point x="165" y="657" type="line"/>
    </contour>
    <component base="S"/>
  </outline>
</glyph>
<glyph name="quotesingle" format="1">
  <advance width="196"/>
  <unicode hex="0027"/>
  <outline>
    <contour>
      <point x="172" y="460" type="line"/>
      <point x="192" y="700" type="line"/>
      <point x="4" y="700" type="line"/>
      <point x="24" y="460" type="line"/>
    </contour>
  </outline>
</glyph>
<glyph name="hyphen" format="1">
  <advance width="369"/>
  <unicode hex="002D"/>
  <outline>
    <contour>
      <point x="352" y="165" type="line"/>
      <point x="352" y="325" type="line"/>
      <point x="17" y="325" type="line"/>
      <point x="17" y="165" type="line"/>
    </contour>
  </outline>
</glyph>
<glyph name="period" format="1">
  <advance width="320"/>
  <unicode hex="002E"/>
  <outline>
    <contour>
      <point x="223" y="0"/>
      <point x="266" y="47"/>
      <point x="266" y="105" type="curve" smooth="yes"/>
      <point x="266" y="163"/>
      <point x="214" y="209"/>
      <point x="161" y="209" type="curve" smooth="yes"/>
      <point x="108" y="209"/>
      <point x="56" y="163"/>
      <point x="56" y="105" type="curve" smooth="yes"/>
      <point x="56" y="47"/>
      <point x="99" y="0"/>
      <point x="161" y="0" type="curve" smooth="yes"/>
    </contour>
  </outline>
</glyph>
<glyph name="zero" format="1">
  <advance width="466"/>
  <unicode hex="0030"/>
  <outline>
    <contour>
      <point x="363" y="-8"/>
      <point x="450" y="78"/>
      <point x="450" y="208" type="curve" smooth="yes"/>
      <point x="450" y="492" type="line" smooth="yes"/>
      <point x="450" y="622"/>
      <point x="363" y="708"/>
      <point x="233" y="708" type="curve" smooth="yes"/>
      <point x="103" y="708"/>
      <point x="16" y="622"/>
      <point x="16" y="492" type="curve" smooth="yes"/>
      <point x="16" y="208" type="line" smooth="yes"/>
      <point x="16" y="78"/>
      <point x="103" y="-8"/>
      <point x="233" y="-8" type="curve" smooth="yes"/>
    </contour>
    <contour>
      <point x="216" y="162"/>
      <point x="204" y="180"/>
      <point x="204" y="208" type="curve" smooth="yes"/>
      <point x="204" y="492" type="line" smooth="yes"/>
      <point x="204" y="520"/>
      <point x="216" y="538"/>
      <point x="233" y="538" type="curve" smooth="yes"/>
      <point x="250" y="538"/>
      <point x="262" y="520"/>
      <point x="262" y="492" type="curve" smooth="yes"/>
      <point x="262" y="208" type="line" smooth="yes"/>
      <point x="262" y="180"/>
      <point x="250" y="162"/>
      <point x="233" y="162" type="curve" smooth="yes"/>
    </contour>
  </outline>
</glyph>
<glyph name="one" format="1">
  <advance width="292"/>
  <unicode hex="0031"/>
  <outline>
    <contour>
      <point x="262" y="0" type="line"/>
      <point x="262" y="700" type="line"/>
      <point x="74" y="700" type="line"/>
      <point x="74" y="0" type="line"/>
    </contour>
    <contour>
      <point x="27" y="529" type="line"/>
      <point x="74" y="529" type="line"/>
      <point x="74" y="700" type="line"/>
      <point x="27" y="673" type="line"/>
    </contour>
  </outline>
</glyph>
<glyph name="two" format="1">
  <advance width="475"/>
  <unicode hex="0032"/>
  <outline>
    <contour>
      <point x="460" y="0" type="line"/>
      <point x="460" y="170" type="line"/>
      <point x="282" y="170" type="line"/>
      <point x="400" y="311" type="line"/>
      <point x="449" y="382"/>
      <point x="454" y="425"/>
      <point x="454" y="520" type="curve" smooth="yes"/>
      <point x="454" y="639"/>
      <point x="363" y="708"/>
      <point x="237" y="708" type="curve" smooth="yes"/>
      <point x="115" y="708"/>
      <point x="28" y="640"/>
      <point x="21" y="520" type="curve"/>
      <point x="21" y="455" type="line"/>
      <point x="211" y="455" type="line"/>
      <point x="211" y="503" type="line"/>
      <point x="211" y="524"/>
      <point x="222" y="538"/>
      <point x="238" y="538" type="curve" smooth="yes"/>
      <point x="253" y="538"/>
      <point x="264" y="524"/>
      <point x="264" y="503" type="curve" smooth="yes"/>
      <point x="264" y="457"/>
      <point x="251" y="423"/>
      <point x="200" y="361" type="curve"/>
      <point x="25" y="170" type="line"/>
      <point x="25" y="0" type="line"/>
    </contour>
  </outline>
</glyph>
<glyph name="three" format="1">
  <advance width="512"/>
  <unicode hex="0033"/>
  <outline>
    <contour>
      <point x="30" y="700" type="line"/>
      <point x="30" y="530" type="line"/>
      <point x="279" y="530" type="line"/>
      <point x="111" y="417" type="line"/>
      <point x="211" y="312" type="line"/>
      <point x="229" y="333"/>
      <point x="241" y="340"/>
      <point x="259" y="340" type="curve" smooth="yes"/>
      <point x="295" y="340"/>
      <point x="318" y="327"/>
      <point x="318" y="308" type="curve" smooth="yes"/>
      <point x="318" y="185" type="line" smooth="yes"/>
      <point x="318" y="166"/>
      <point x="295" y="153"/>
      <point x="259" y="153" type="curve" smooth="yes"/>
      <point x="225" y="153"/>
      <point x="202" y="166"/>
      <point x="202" y="185" type="curve" smooth="yes"/>
      <point x="202" y="232" type="line"/>
      <point x="14" y="232" type="line"/>
      <point x="14" y="172" type="line" smooth="yes"/>
      <point x="14" y="59"/>
      <point x="112" y="-7"/>
      <point x="259" y="-7" type="curve" smooth="yes"/>
      <point x="398" y="-7"/>
      <point x="496" y="59"/>
      <point x="496" y="172" type="curve" smooth="yes"/>
      <point x="496" y="276" type="line" smooth="yes"/>
      <point x="496" y="373"/>
      <point x="405" y="447"/>
      <point x="293" y="405" type="curve"/>
      <point x="292" y="363" type="line"/>
      <point x="496" y="530" type="line"/>
      <point x="496" y="700" type="line"/>
    </contour>
  </outline>
</glyph>
<glyph name="four" format="1">
  <advance width="510"/>
  <unicode hex="0034"/>
  <outline>
    <contour>
      <point x="262" y="337" type="line"/>
      <point x="262" y="0" type="line"/>
      <point x="451" y="0" type="line"/>
      <point x="451" y="480" type="line"/>
      <point x="293" y="480" type="line"/>
    </contour>
    <contour>
      <point x="226" y="337" type="line"/>
      <point x="333" y="700" type="line"/>
      <point x="136" y="700" type="line"/>
      <point x="8" y="302" type="line"/>
      <point x="8" y="167" type="line"/>
      <point x="502" y="167" type="line"/>
      <point x="502" y="337" type="line"/>
    </contour>
  </outline>
</glyph>
<glyph name="five" format="1">
  <advance width="516"/>
  <unicode hex="0035"/>
  <outline>
    <contour>
      <point x="404" y="-8"/>
      <point x="502" y="64"/>
      <point x="502" y="171" type="curve" smooth="yes"/>
      <point x="502" y="260" type="line" smooth="yes"/>
      <point x="502" y="370"/>
      <point x="428" y="444"/>
      <point x="316" y="444" type="curve" smooth="yes"/>
      <point x="213" y="444"/>
      <point x="144" y="370"/>
      <point x="144" y="260" type="curve"/>
      <point x="144" y="256" type="line"/>
      <point x="203" y="256" type="line"/>
      <point x="203" y="257" type="line" smooth="yes"/>
      <point x="203" y="272"/>
      <point x="225" y="282"/>
      <point x="257" y="282" type="curve" smooth="yes"/>
      <point x="291" y="282"/>
      <point x="314" y="263"/>
      <point x="314" y="235" type="curve" smooth="yes"/>
      <point x="314" y="199" type="line" smooth="yes"/>
      <point x="314" y="171"/>
      <point x="291" y="152"/>
      <point x="257" y="152" type="curve" smooth="yes"/>
      <point x="224" y="152"/>
      <point x="202" y="165"/>
      <point x="202" y="184" type="curve" smooth="yes"/>
      <point x="202" y="185" type="line"/>
      <point x="14" y="185" type="line"/>
      <point x="14" y="171" type="line" smooth="yes"/>
      <point x="14" y="64"/>
      <point x="111" y="-8"/>
      <point x="257" y="-8" type="curve" smooth="yes"/>
    </contour>
    <contour>
      <point x="203" y="254" type="line"/>
      <point x="204" y="530" type="line"/>
      <point x="499" y="530" type="line"/>
      <point x="499" y="700" type="line"/>
      <point x="16" y="700" type="line"/>
      <point x="16" y="254" type="line"/>
    </contour>
  </outline>
</glyph>
<glyph name="six" format="1">
  <advance width="521"/>
  <unicode hex="0036"/>
  <outline>
    <contour>
      <point x="409" y="-8"/>
      <point x="507" y="64"/>
      <point x="507" y="171" type="curve" smooth="yes"/>
      <point x="507" y="260" type="line" smooth="yes"/>
      <point x="507" y="370"/>
      <point x="425" y="444"/>
      <point x="301" y="444" type="curve" smooth="yes"/>
      <point x="244" y="444"/>
      <point x="186" y="397"/>
      <point x="157" y="327" type="curve"/>
      <point x="206" y="327" type="line"/>
      <point x="206" y="496" type="line" smooth="yes"/>
      <point x="206" y="524"/>
      <point x="229" y="543"/>
      <point x="263" y="543" type="curve" smooth="yes"/>
      <point x="297" y="543"/>
      <point x="319" y="524"/>
      <point x="319" y="496" type="curve" smooth="yes"/>
      <point x="319" y="470" type="line"/>
      <point x="507" y="470" type="line"/>
      <point x="507" y="524" type="line" smooth="yes"/>
      <point x="507" y="634"/>
      <point x="409" y="708"/>
      <point x="263" y="708" type="curve" smooth="yes"/>
      <point x="116" y="708"/>
      <point x="18" y="634"/>
      <point x="18" y="524" type="curve" smooth="yes"/>
      <point x="18" y="171" type="line" smooth="yes"/>
      <point x="18" y="64"/>
      <point x="116" y="-8"/>
      <point x="263" y="-8" type="curve" smooth="yes"/>
    </contour>
    <contour>
      <point x="229" y="152"/>
      <point x="206" y="172"/>
      <point x="206" y="203" type="curve" smooth="yes"/>
      <point x="206" y="234" type="line" smooth="yes"/>
      <point x="206" y="264"/>
      <point x="229" y="284"/>
      <point x="263" y="284" type="curve" smooth="yes"/>
      <point x="297" y="284"/>
      <point x="319" y="264"/>
      <point x="319" y="234" type="curve" smooth="yes"/>
      <point x="319" y="203" type="line" smooth="yes"/>
      <point x="319" y="172"/>
      <point x="297" y="152"/>
      <point x="263" y="152" type="curve" smooth="yes"/>
    </contour>
  </outline>
</glyph>
<glyph name="seven" format="1">
  <advance width="411"/>
  <unicode hex="0037"/>
  <outline>
    <contour>
      <point x="235" y="0" type="line"/>
      <point x="402" y="530" type="line"/>
      <point x="402" y="700" type="line"/>
      <point x="9" y="700" type="line"/>
      <point x="9" y="530" type="line"/>
      <point x="204" y="530" type="line"/>
      <point x="39" y="0" type="line"/>
    </contour>
  </outline>
</glyph>
<glyph name="eight" format="1">
  <advance width="502"/>
  <unicode hex="0038"/>
  <outline>
    <contour>
      <point x="391" y="-8"/>
      <point x="477" y="69"/>
      <point x="477" y="194" type="curve" smooth="yes"/>
      <point x="477" y="241" type="line" smooth="yes"/>
      <point x="477" y="427"/>
      <point x="286" y="403"/>
      <point x="251" y="403" type="curve" smooth="yes"/>
      <point x="216" y="403"/>
      <point x="25" y="427"/>
      <point x="25" y="241" type="curve" smooth="yes"/>
      <point x="25" y="195" type="line" smooth="yes"/>
      <point x="25" y="69"/>
      <point x="111" y="-8"/>
      <point x="251" y="-8" type="curve" smooth="yes"/>
    </contour>
    <contour>
      <point x="227" y="152"/>
      <point x="213" y="171"/>
      <point x="213" y="203" type="curve" smooth="yes"/>
      <point x="213" y="237" type="line" smooth="yes"/>
      <point x="213" y="269"/>
      <point x="227" y="288"/>
      <point x="251" y="288" type="curve"/>
      <point x="275" y="288"/>
      <point x="289" y="269"/>
      <point x="289" y="237" type="curve" smooth="yes"/>
      <point x="289" y="203" type="line" smooth="yes"/>
      <point x="289" y="171"/>
      <point x="275" y="152"/>
      <point x="251" y="152" type="curve" smooth="yes"/>
    </contour>
    <contour>
      <point x="351" y="294"/>
      <point x="478" y="339"/>
      <point x="478" y="486" type="curve" smooth="yes"/>
      <point x="478" y="525" type="line" smooth="yes"/>
      <point x="478" y="650"/>
      <point x="392" y="708"/>
      <point x="251" y="708" type="curve" smooth="yes"/>
      <point x="111" y="708"/>
      <point x="24" y="651"/>
      <point x="24" y="525" type="curve" smooth="yes"/>
      <point x="24" y="487" type="line" smooth="yes"/>
      <point x="24" y="339"/>
      <point x="141" y="294"/>
      <point x="251" y="294" type="curve" smooth="yes"/>
    </contour>
    <contour>
      <point x="227" y="422"/>
      <point x="212" y="441"/>
      <point x="212" y="473" type="curve" smooth="yes"/>
      <point x="212" y="497" type="line" smooth="yes"/>
      <point x="212" y="529"/>
      <point x="227" y="548"/>
      <point x="251" y="548" type="curve" smooth="yes"/>
      <point x="275" y="548"/>
      <point x="290" y="529"/>
      <point x="290" y="497" type="curve" smooth="yes"/>
      <point x="290" y="473" type="line" smooth="yes"/>
      <point x="290" y="441"/>
      <point x="275" y="422"/>
      <point x="251" y="422" type="curve" smooth="yes"/>
    </contour>
  </outline>
</glyph>
<glyph name="at" format="1">
  <advance width="862"/>
  <unicode hex="0040"/>
  <outline>
    <contour>
      <point x="769" y="-62"/>
      <point x="943" y="80"/>
      <point x="943" y="292" type="curve" smooth="yes"/>
      <point x="943" y="503"/>
      <point x="769" y="644"/>
      <point x="517" y="644" type="curve" smooth="yes"/>
      <point x="267" y="644"/>
      <point x="93" y="503"/>
      <point x="93" y="292" type="curve" smooth="yes"/>
      <point x="93" y="80"/>
      <point x="267" y="-62"/>
      <point x="517" y="-62" type="curve" smooth="yes"/>
    </contour>
    <contour>
      <point x="328" y="38"/>
      <point x="195" y="140"/>
      <point x="195" y="292" type="curve" smooth="yes"/>
      <point x="195" y="443"/>
      <point x="328" y="544"/>
      <point x="517" y="544" type="curve" smooth="yes"/>
      <point x="708" y="544"/>
      <point x="841" y="443"/>
      <point x="841" y="292" type="curve" smooth="yes"/>
      <point x="841" y="140"/>
      <point x="708" y="38"/>
      <point x="517" y="38" type="curve" smooth="yes"/>
    </contour>
    <component base="a" xOffset="294" yOffset="131" xScale="0.59" yScale="0.59"/>
  </outline>
</glyph>
<glyph name="A" format="1">
  <advance width="534"/>
  <unicode hex="0041"/>
  <outline>
    <contour>
      <point x="188" y="0" type="line"/>
      <point x="274" y="449" type="line"/>
      <point x="346" y="0" type="line"/>
      <point x="534" y="0" type="line"/>
      <point x="370" y="700" type="line"/>
      <point x="164" y="700" type="line"/>
      <point x="0" y="0" type="line"/>
    </contour>
    <contour>
      <point x="407" y="100" type="line"/>
      <point x="407" y="244" type="line"/>
      <point x="128" y="244" type="line"/>
      <point x="128" y="100" type="line"/>
    </contour>
  </outline>
</glyph>
<glyph name="B" format="1">
  <advance width="485"/>
  <unicode hex="0042"/>
  <outline>
    <contour>
      <point x="204" y="530" type="line"/>
      <point x="224" y="530" type="line"/>
      <point x="260" y="530"/>
      <point x="278" y="511"/>
      <point x="278" y="478" type="curve" smooth="yes"/>
      <point x="278" y="447"/>
      <point x="260" y="427"/>
      <point x="224" y="427" type="curve"/>
      <point x="204" y="427" type="line"/>
    </contour>
    <contour>
      <point x="188" y="319" type="line" smooth="yes"/>
      <point x="371" y="319"/>
      <point x="462" y="369"/>
      <point x="462" y="503" type="curve" smooth="yes"/>
      <point x="462" y="640"/>
      <point x="366" y="700"/>
      <point x="221" y="700" type="curve"/>
      <point x="16" y="700" type="line"/>
      <point x="16" y="319" type="line"/>
    </contour>
    <contour>
      <point x="204" y="288" type="line"/>
      <point x="236" y="288" type="line" smooth="yes"/>
      <point x="267" y="288"/>
      <point x="287" y="260"/>
      <point x="287" y="225" type="curve" smooth="yes"/>
      <point x="287" y="190"/>
      <point x="266" y="170"/>
      <point x="235" y="170" type="curve" smooth="yes"/>
      <point x="204" y="170" type="line"/>
    </contour>
    <contour>
      <point x="250" y="0" type="line" smooth="yes"/>
      <point x="375" y="0"/>
      <point x="475" y="63"/>
      <point x="475" y="204" type="curve" smooth="yes"/>
      <point x="475" y="357"/>
      <point x="313" y="413"/>
      <point x="188" y="413" type="curve"/>
      <point x="16" y="413" type="line"/>
      <point x="16" y="0" type="line"/>
    </contour>
  </outline>
</glyph>
<glyph name="C" format="1">
  <advance width="485"/>
  <unicode hex="0043"/>
  <outline>
    <contour>
      <point x="387" y="-8"/>
      <point x="479" y="72"/>
      <point x="479" y="192" type="curve" smooth="yes"/>
      <point x="479" y="264" type="line"/>
      <point x="291" y="264" type="line"/>
      <point x="291" y="196" type="line" smooth="yes"/>
      <point x="291" y="171"/>
      <point x="274" y="152"/>
      <point x="247" y="152" type="curve" smooth="yes"/>
      <point x="220" y="152"/>
      <point x="203" y="171"/>
      <point x="203" y="196" type="curve" smooth="yes"/>
      <point x="203" y="504" type="line" smooth="yes"/>
      <point x="203" y="529"/>
      <point x="220" y="548"/>
      <point x="247" y="548" type="curve" smooth="yes"/>
      <point x="274" y="548"/>
      <point x="291" y="529"/>
      <point x="291" y="504" type="curve" smooth="yes"/>
      <point x="291" y="436" type="line"/>
      <point x="479" y="436" type="line"/>
      <point x="479" y="508" type="line" smooth="yes"/>
      <point x="479" y="628"/>
      <point x="387" y="708"/>
      <point x="247" y="708" type="curve" smooth="yes"/>
      <point x="107" y="708"/>
      <point x="15" y="628"/>
      <point x="15" y="508" type="curve" smooth="yes"/>
      <point x="15" y="192" type="line" smooth="yes"/>
      <point x="15" y="72"/>
      <point x="107" y="-8"/>
      <point x="247" y="-8" type="curve" smooth="yes"/>
    </contour>
  </outline>
</glyph>
<glyph name="D" format="1">
  <advance width="538"/>
  <unicode hex="0044"/>
  <outline>
    <contour>
      <point x="260" y="0" type="line" smooth="yes"/>
      <point x="429" y="0"/>
      <point x="524" y="74"/>
      <point x="524" y="205" type="curve" smooth="yes"/>
      <point x="524" y="495" type="line" smooth="yes"/>
      <point x="524" y="626"/>
      <point x="429" y="700"/>
      <point x="260" y="700" type="curve" smooth="yes"/>
      <point x="18" y="700" type="line"/>
      <point x="18" y="0" type="line"/>
    </contour>
    <contour>
      <point x="206" y="530" type="line"/>
      <point x="266" y="530" type="line" smooth="yes"/>
      <point x="311" y="530"/>
      <point x="336" y="503"/>
      <point x="336" y="454" type="curve"/>
      <point x="336" y="247" type="line"/>
      <point x="334" y="199"/>
      <point x="309" y="172"/>
      <point x="267" y="171" type="curve" smooth="yes"/>
      <point x="206" y="170" type="line"/>
    </contour>
  </outline>
</glyph>
<glyph name="E" format="1">
  <advance width="496"/>
  <unicode hex="0045"/>
  <outline>
    <contour>
      <point x="488" y="0" type="line"/>
      <point x="488" y="170" type="line"/>
      <point x="206" y="170" type="line"/>
      <point x="206" y="530" type="line"/>
      <point x="488" y="530" type="line"/>
      <point x="488" y="700" type="line"/>
      <point x="18" y="700" type="line"/>
      <point x="18" y="0" type="line"/>
    </contour>
    <contour>
      <point x="374" y="265" type="line"/>
      <point x="374" y="435" type="line"/>
      <point x="94" y="435" type="line"/>
      <point x="94" y="265" type="line"/>
    </contour>
  </outline>
</glyph>
<glyph name="F" format="1">
  <advance width="465"/>
  <unicode hex="0046"/>
  <outline>
    <contour>
      <point x="215" y="0" type="line"/>
      <point x="215" y="534" type="line"/>
      <point x="462" y="534" type="line"/>
      <point x="462" y="700" type="line"/>
      <point x="27" y="700" type="line"/>
      <point x="27" y="0" type="line"/>
    </contour>
    <contour>
      <point x="363" y="269" type="line"/>
      <point x="363" y="435" type="line"/>
      <point x="103" y="435" type="line"/>
      <point x="103" y="269" type="line"/>
    </contour>
  </outline>
</glyph>
<glyph name="G" format="1">
  <advance width="453"/>
  <unicode hex="0047"/>
  <outline>
    <contour>
      <point x="357" y="-11"/>
      <point x="443" y="72"/>
      <point x="443" y="196" type="curve" smooth="yes"/>
      <point x="443" y="414" type="line"/>
      <point x="231" y="414" type="line"/>
      <point x="231" y="269" type="line"/>
      <point x="255" y="269" type="line"/>
      <point x="255" y="192" type="line" smooth="yes"/>
      <point x="255" y="167"/>
      <point x="245" y="150"/>
      <point x="229" y="150" type="curve" smooth="yes"/>
      <point x="214" y="150"/>
      <point x="204" y="167"/>
      <point x="204" y="192" type="curve" smooth="yes"/>
      <point x="204" y="509" type="line" smooth="yes"/>
      <point x="204" y="534"/>
      <point x="214" y="551"/>
      <point x="229" y="551" type="curve" smooth="yes"/>
      <point x="245" y="551"/>
      <point x="255" y="534"/>
      <point x="255" y="509" type="curve" smooth="yes"/>
      <point x="255" y="455" type="line"/>
      <point x="443" y="455" type="line"/>
      <point x="443" y="503" type="line" smooth="yes"/>
      <point x="443" y="628"/>
      <point x="357" y="712"/>
      <point x="229" y="712" type="curve" smooth="yes"/>
      <point x="101" y="712"/>
      <point x="16" y="629"/>
      <point x="16" y="505" type="curve" smooth="yes"/>
      <point x="16" y="196" type="line" smooth="yes"/>
      <point x="16" y="72"/>
      <point x="101" y="-11"/>
      <point x="229" y="-11" type="curve" smooth="yes"/>
    </contour>
  </outline>
</glyph>
<glyph name="H" format="1">
  <advance width="500"/>
  <unicode hex="0048"/>
  <outline>
    <contour>
      <point x="473" y="0" type="line"/>
      <point x="473" y="700" type="line"/>
      <point x="285" y="700" type="line"/>
      <point x="285" y="0" type="line"/>
    </contour>
    <contour>
      <point x="215" y="0" type="line"/>
      <point x="215" y="700" type="line"/>
      <point x="27" y="700" type="line"/>
      <point x="27" y="0" type="line"/>
    </contour>
    <contour>
      <point x="352" y="275" type="line"/>
      <point x="352" y="435" type="line"/>
      <point x="147" y="435" type="line"/>
      <point x="147" y="275" type="line"/>
    </contour>
  </outline>
</glyph>
<glyph name="I" format="1">
  <advance width="224"/>
  <unicode hex="0049"/>
  <outline>
    <contour>
      <point x="206" y="0" type="line"/>
      <point x="206" y="700" type="line"/>
      <point x="18" y="700" type="line"/>
      <point x="18" y="0" type="line"/>
    </contour>
  </outline>
</glyph>
<glyph name="J" format="1">
  <advance width="469"/>
  <unicode hex="004A"/>
  <outline>
    <contour>
      <point x="362" y="-8"/>
      <point x="451" y="72"/>
      <point x="451" y="192" type="curve" smooth="yes"/>
      <point x="451" y="700" type="line"/>
      <point x="263" y="700" type="line"/>
      <point x="263" y="204" type="line" smooth="yes"/>
      <point x="263" y="179"/>
      <point x="249" y="162"/>
      <point x="228" y="162" type="curve" smooth="yes"/>
      <point x="208" y="162"/>
      <point x="194" y="179"/>
      <point x="194" y="204" type="curve" smooth="yes"/>
      <point x="194" y="265" type="line"/>
      <point x="6" y="265" type="line"/>
      <point x="6" y="192" type="line" smooth="yes"/>
      <point x="6" y="72"/>
      <point x="95" y="-8"/>
      <point x="228" y="-8" type="curve" smooth="yes"/>
    </contour>
  </outline>
</glyph>
<glyph name="K" format="1">
  <advance width="537"/>
  <unicode hex="004B"/>
  <outline>
    <contour>
      <point x="215" y="0" type="line"/>
      <point x="215" y="217" type="line"/>
      <point x="317" y="0" type="line"/>
      <point x="532" y="0" type="line"/>
      <point x="341" y="360" type="line"/>
      <point x="540" y="700" type="line"/>
      <point x="332" y="700" type="line"/>
      <point x="215" y="461" type="line"/>
      <point x="215" y="700" type="line"/>
      <point x="27" y="700" type="line"/>
      <point x="27" y="0" type="line"/>
    </contour>
  </outline>
</glyph>
<glyph name="L" format="1">
  <advance width="421"/>
  <unicode hex="004C"/>
  <outline>
    <contour>
      <point x="417" y="0" type="line"/>
      <point x="417" y="170" type="line"/>
      <point x="206" y="170" type="line"/>
      <point x="206" y="700" type="line"/>
      <point x="18" y="700" type="line"/>
      <point x="18" y="0" type="line"/>
    </contour>
  </outline>
</glyph>
<glyph name="M" format="1">
  <advance width="628"/>
  <unicode hex="004D"/>
  <outline>
    <contour>
      <point x="204" y="0" type="line"/>
      <point x="204" y="418" type="line"/>
      <point x="279" y="282" type="line"/>
      <point x="349" y="282" type="line"/>
      <point x="424" y="418" type="line"/>
      <point x="424" y="0" type="line"/>
      <point x="612" y="0" type="line"/>
      <point x="612" y="700" type="line"/>
      <point x="429" y="700" type="line"/>
      <point x="314" y="512" type="line"/>
      <point x="199" y="700" type="line"/>
      <point x="16" y="700" type="line"/>
      <point x="16" y="0" type="line"/>
    </contour>
  </outline>
</glyph>
<glyph name="N" format="1">
  <advance width="552"/>
  <unicode hex="004E"/>
  <outline>
    <contour>
      <point x="212" y="0" type="line"/>
      <point x="210" y="346" type="line"/>
      <point x="320" y="0" type="line"/>
      <point x="528" y="0" type="line"/>
      <point x="528" y="700" type="line"/>
      <point x="340" y="700" type="line"/>
      <point x="342" y="356" type="line"/>
      <point x="232" y="700" type="line"/>
      <point x="24" y="700" type="line"/>
      <point x="24" y="0" type="line"/>
    </contour>
  </outline>
</glyph>
<glyph name="O" format="1">
  <advance width="520"/>
  <unicode hex="004F"/>
  <outline>
    <contour>
      <point x="404" y="-12"/>
      <point x="499" y="68"/>
      <point x="499" y="188" type="curve" smooth="yes"/>
      <point x="499" y="512" type="line" smooth="yes"/>
      <point x="499" y="632"/>
      <point x="404" y="712"/>
      <point x="260" y="712" type="curve" smooth="yes"/>
      <point x="116" y="712"/>
      <point x="21" y="632"/>
      <point x="21" y="512" type="curve" smooth="yes"/>
      <point x="21" y="188" type="line" smooth="yes"/>
      <point x="21" y="68"/>
      <point x="116" y="-12"/>
      <point x="260" y="-12" type="curve" smooth="yes"/>
    </contour>
    <contour>
      <point x="229" y="148"/>
      <point x="209" y="173"/>
      <point x="209" y="202" type="curve" smooth="yes"/>
      <point x="209" y="498" type="line" smooth="yes"/>
      <point x="209" y="527"/>
      <point x="229" y="552"/>
      <point x="260" y="552" type="curve" smooth="yes"/>
      <point x="291" y="552"/>
      <point x="311" y="527"/>
      <point x="311" y="498" type="curve" smooth="yes"/>
      <point x="311" y="202" type="line" smooth="yes"/>
      <point x="311" y="173"/>
      <point x="291" y="148"/>
      <point x="260" y="148" type="curve" smooth="yes"/>
    </contour>
  </outline>
</glyph>
<glyph name="P" format="1">
  <advance width="498"/>
  <unicode hex="0050"/>
  <outline>
    <contour>
      <point x="215" y="0" type="line"/>
      <point x="215" y="540" type="line"/>
      <point x="250" y="540" type="line" smooth="yes"/>
      <point x="282" y="540"/>
      <point x="304" y="514"/>
      <point x="304" y="476" type="curve" smooth="yes"/>
      <point x="304" y="438"/>
      <point x="282" y="412"/>
      <point x="250" y="412" type="curve" smooth="yes"/>
      <point x="199" y="412" type="line"/>
      <point x="199" y="252" type="line"/>
      <point x="282" y="252" type="line" smooth="yes"/>
      <point x="408" y="252"/>
      <point x="492" y="346"/>
      <point x="492" y="476" type="curve" smooth="yes"/>
      <point x="492" y="610"/>
      <point x="404" y="700"/>
      <point x="272" y="700" type="curve" smooth="yes"/>
      <point x="27" y="700" type="line"/>
      <point x="27" y="0" type="line"/>
    </contour>
  </outline>
</glyph>
<glyph name="Q" format="1">
  <advance width="451"/>
  <unicode hex="0051"/>
  <outline>
    <contour>
      <point x="319" y="-67" type="line"/>
      <point x="319" y="133" type="line"/>
      <point x="131" y="137" type="line"/>
      <point x="131" y="-67" type="line"/>
    </contour>
    <contour>
      <point x="209" y="153"/>
      <point x="200" y="171"/>
      <point x="200" y="199" type="curve" smooth="yes"/>
      <point x="200" y="501" type="line" smooth="yes"/>
      <point x="200" y="529"/>
      <point x="209" y="547"/>
      <point x="223" y="547" type="curve" smooth="yes"/>
      <point x="237" y="547"/>
      <point x="246" y="529"/>
      <point x="246" y="501" type="curve" smooth="yes"/>
      <point x="246" y="199" type="line" smooth="yes"/>
      <point x="246" y="171"/>
      <point x="237" y="153"/>
      <point x="223" y="153" type="curve" smooth="yes"/>
    </contour>
    <contour>
      <point x="351" y="-8"/>
      <point x="434" y="81"/>
      <point x="434" y="215" type="curve" smooth="yes"/>
      <point x="434" y="485" type="line" smooth="yes"/>
      <point x="434" y="619"/>
      <point x="351" y="708"/>
      <point x="223" y="708" type="curve" smooth="yes"/>
      <point x="96" y="708"/>
      <point x="12" y="619"/>
      <point x="12" y="485" type="curve" smooth="yes"/>
      <point x="12" y="215" type="line" smooth="yes"/>
      <point x="12" y="81"/>
      <point x="96" y="-8"/>
      <point x="223" y="-8" type="curve" smooth="yes"/>
    </contour>
  </outline>
</glyph>
<glyph name="R" format="1">
  <advance width="504"/>
  <unicode hex="0052"/>
  <outline>
    <contour>
      <point x="212" y="0" type="line"/>
      <point x="212" y="530" type="line"/>
      <point x="249" y="530" type="line" smooth="yes"/>
      <point x="278" y="530"/>
      <point x="297" y="506"/>
      <point x="297" y="469" type="curve" smooth="yes"/>
      <point x="297" y="432"/>
      <point x="278" y="407"/>
      <point x="249" y="407" type="curve" smooth="yes"/>
      <point x="196" y="407" type="line"/>
      <point x="196" y="244" type="line"/>
      <point x="283" y="244" type="line" smooth="yes"/>
      <point x="404" y="244"/>
      <point x="485" y="336"/>
      <point x="485" y="474" type="curve" smooth="yes"/>
      <point x="485" y="610"/>
      <point x="400" y="700"/>
      <point x="273" y="700" type="curve" smooth="yes"/>
      <point x="24" y="700" type="line"/>
      <point x="24" y="0" type="line"/>
    </contour>
    <contour>
      <point x="492" y="0" type="line"/>
      <point x="386" y="335" type="line"/>
      <point x="208" y="335" type="line"/>
      <point x="298" y="0" type="line"/>
    </contour>
  </outline>
</glyph>
<glyph name="S" format="1">
  <advance width="508"/>
  <unicode hex="0053"/>
  <outline>
    <contour>
      <point x="400" y="-8"/>
      <point x="498" y="67"/>
      <point x="498" y="200" type="curve" smooth="yes"/>
      <point x="498" y="297"/>
      <point x="445" y="357"/>
      <point x="332" y="410" type="curve" smooth="yes"/>
      <point x="242" y="452"/>
      <point x="195" y="455"/>
      <point x="195" y="497" type="curve" smooth="yes"/>
      <point x="195" y="523"/>
      <point x="214" y="538"/>
      <point x="246" y="538" type="curve" smooth="yes"/>
      <point x="284" y="538"/>
      <point x="309" y="518"/>
      <point x="309" y="488" type="curve" smooth="yes"/>
      <point x="309" y="462" type="line"/>
      <point x="494" y="462" type="line"/>
      <point x="494" y="509" type="line" smooth="yes"/>
      <point x="494" y="628"/>
      <point x="396" y="708"/>
      <point x="252" y="708" type="curve" smooth="yes"/>
      <point x="107" y="708"/>
      <point x="10" y="626"/>
      <point x="10" y="493" type="curve" smooth="yes"/>
      <point x="10" y="382"/>
      <point x="78" y="342"/>
      <point x="173" y="300" type="curve" smooth="yes"/>
      <point x="277" y="254"/>
      <point x="313" y="237"/>
      <point x="313" y="203" type="curve" smooth="yes"/>
      <point x="313" y="175"/>
      <point x="289" y="162"/>
      <point x="260" y="162" type="curve" smooth="yes"/>
      <point x="220" y="162"/>
      <point x="200" y="186"/>
      <point x="200" y="214" type="curve" smooth="yes"/>
      <point x="200" y="234" type="line"/>
      <point x="11" y="234" type="line"/>
      <point x="14" y="180" type="line" smooth="yes"/>
      <point x="20" y="67"/>
      <point x="109" y="-8"/>
      <point x="255" y="-8" type="curve" smooth="yes"/>
    </contour>
    <contour>
      <point x="251" y="708" type="move" name="top"/>
    </contour>
  </outline>
</glyph>
<glyph name="T" format="1">
  <advance width="480"/>
  <unicode hex="0054"/>
  <outline>
    <contour>
      <point x="332" y="0" type="line"/>
      <point x="332" y="689" type="line"/>
      <point x="144" y="689" type="line"/>
      <point x="144" y="0" type="line"/>
    </contour>
    <contour>
      <point x="474" y="540" type="line"/>
      <point x="474" y="700" type="line"/>
      <point x="6" y="700" type="line"/>
      <point x="6" y="540" type="line"/>
    </contour>
  </outline>
</glyph>
<glyph name="U" format="1">
  <advance width="492"/>
  <unicode hex="0055"/>
  <outline>
    <contour>
      <point x="387" y="-8"/>
      <point x="480" y="72"/>
      <point x="480" y="192" type="curve" smooth="yes"/>
      <point x="480" y="700" type="line"/>
      <point x="292" y="700" type="line"/>
      <point x="292" y="198" type="line" smooth="yes"/>
      <point x="292" y="170"/>
      <point x="274" y="152"/>
      <point x="250" y="152" type="curve" smooth="yes"/>
      <point x="226" y="152"/>
      <point x="208" y="170"/>
      <point x="208" y="198" type="curve" smooth="yes"/>
      <point x="208" y="700" type="line"/>
      <point x="20" y="700" type="line"/>
      <point x="20" y="192" type="line" smooth="yes"/>
      <point x="20" y="72"/>
      <point x="113" y="-8"/>
      <point x="250" y="-8" type="curve" smooth="yes"/>
    </contour>
  </outline>
</glyph>
<glyph name="V" format="1">
  <advance width="559"/>
  <unicode hex="0056"/>
  <outline>
    <contour>
      <point x="370" y="0" type="line"/>
      <point x="550" y="700" type="line"/>
      <point x="362" y="700" type="line"/>
      <point x="283" y="250" type="line"/>
      <point x="201" y="700" type="line"/>
      <point x="9" y="700" type="line"/>
      <point x="187" y="0" type="line"/>
    </contour>
  </outline>
</glyph>
<glyph name="W" format="1">
  <advance width="783"/>
  <unicode hex="0057"/>
  <outline>
    <contour>
      <point x="333" y="0" type="line"/>
      <point x="392" y="372" type="line"/>
      <point x="464" y="0" type="line"/>
      <point x="654" y="0" type="line"/>
      <point x="777" y="700" type="line"/>
      <point x="589" y="700" type="line"/>
      <point x="548" y="348" type="line"/>
      <point x="483" y="700" type="line"/>
      <point x="300" y="700" type="line"/>
      <point x="251" y="348" type="line"/>
      <point x="204" y="700" type="line"/>
      <point x="6" y="700" type="line"/>
      <point x="155" y="0" type="line"/>
    </contour>
  </outline>
</glyph>
<glyph name="X" format="1">
  <advance width="489"/>
  <unicode hex="0058"/>
  <outline>
    <contour>
      <point x="191" y="0" type="line"/>
      <point x="245" y="162" type="line"/>
      <point x="298" y="0" type="line"/>
      <point x="489" y="0" type="line"/>
      <point x="344" y="350" type="line"/>
      <point x="489" y="700" type="line"/>
      <point x="297" y="700" type="line"/>
      <point x="245" y="537" type="line"/>
      <point x="192" y="700" type="line"/>
      <point x="0" y="700" type="line"/>
      <point x="145" y="350" type="line"/>
      <point x="0" y="0" type="line"/>
    </contour>
  </outline>
</glyph>
<glyph name="Y" format="1">
  <advance width="487"/>
  <unicode hex="0059"/>
  <outline>
    <contour>
      <point x="337" y="2" type="line"/>
      <point x="337" y="251" type="line"/>
      <point x="481" y="700" type="line"/>
      <point x="283" y="700" type="line"/>
      <point x="244" y="452" type="line"/>
      <point x="204" y="700" type="line"/>
      <point x="6" y="700" type="line"/>
      <point x="149" y="251" type="line"/>
      <point x="149" y="2" type="line"/>
    </contour>
  </outline>
</glyph>
<glyph name="Z" format="1">
  <advance width="408"/>
  <unicode hex="005A"/>
  <outline>
    <contour>
      <point x="400" y="0" type="line"/>
      <point x="400" y="170" type="line"/>
      <point x="202" y="170" type="line"/>
      <point x="400" y="530" type="line"/>
      <point x="400" y="700" type="line"/>
      <point x="6" y="700" type="line"/>
      <point x="6" y="530" type="line"/>
      <point x="202" y="530" type="line"/>
      <point x="6" y="170" type="line"/>
      <point x="6" y="0" type="line"/>
    </contour>
  </outline>
</glyph>
<glyph name="a" format="1">
  <advance width="521"/>
  <unicode hex="0061"/>
  <outline>
    <contour>
      <point x="505" y="0" type="line"/>
      <point x="505" y="355" type="line" smooth="yes"/>
      <point x="505" y="451"/>
      <point x="396" y="528"/>
      <point x="257" y="528" type="curve" smooth="yes"/>
      <point x="117" y="528"/>
      <point x="16" y="451"/>
      <point x="16" y="355" type="curve" smooth="yes"/>
      <point x="16" y="338" type="line"/>
      <point x="204" y="331" type="line"/>
      <point x="204" y="331" type="line" smooth="yes"/>
      <point x="204" y="351"/>
      <point x="226" y="367"/>
      <point x="260" y="367" type="curve" smooth="yes"/>
      <point x="294" y="367"/>
      <point x="317" y="348"/>
      <point x="317" y="320" type="curve" smooth="yes"/>
      <point x="317" y="0" type="line"/>
    </contour>
    <contour>
      <point x="296" y="-8"/>
      <point x="356" y="51"/>
      <point x="356" y="182" type="curve"/>
      <point x="356" y="305" type="line"/>
      <point x="219" y="305" type="line"/>
      <point x="98" y="305"/>
      <point x="10" y="263"/>
      <point x="10" y="146" type="curve" smooth="yes"/>
      <point x="10" y="9"/>
      <point x="118" y="-8"/>
      <point x="175" y="-8" type="curve" smooth="yes"/>
    </contour>
    <contour>
      <point x="225" y="130"/>
      <point x="198" y="140"/>
      <point x="198" y="160" type="curve" smooth="yes"/>
      <point x="198" y="179"/>
      <point x="214" y="196"/>
      <point x="262" y="196" type="curve"/>
      <point x="317" y="196" type="line"/>
      <point x="317" y="190" type="line" smooth="yes"/>
      <point x="317" y="158"/>
      <point x="296" y="130"/>
      <point x="252" y="130" type="curve" smooth="yes"/>
    </contour>
  </outline>
</glyph>
<glyph name="b" format="1">
  <advance width="458"/>
  <unicode hex="0062"/>
  <outline>
    <contour>
      <point x="212" y="0" type="line"/>
      <point x="212" y="700" type="line"/>
      <point x="24" y="700" type="line"/>
      <point x="24" y="0" type="line"/>
    </contour>
    <component base="b.bowl" xOffset="178"/>
  </outline>
</glyph>
<glyph name="c" format="1">
  <advance width="515"/>
  <unicode hex="0063"/>
  <outline>
    <contour>
      <point x="405" y="-7"/>
      <point x="503" y="76"/>
      <point x="503" y="200" type="curve" smooth="yes"/>
      <point x="503" y="200" type="line"/>
      <point x="315" y="212" type="line"/>
      <point x="315" y="210" type="line" smooth="yes"/>
      <point x="315" y="176"/>
      <point x="293" y="153"/>
      <point x="259" y="153" type="curve" smooth="yes"/>
      <point x="225" y="153"/>
      <point x="202" y="179"/>
      <point x="202" y="217" type="curve" smooth="yes"/>
      <point x="202" y="304" type="line" smooth="yes"/>
      <point x="202" y="342"/>
      <point x="225" y="368"/>
      <point x="259" y="368" type="curve" smooth="yes"/>
      <point x="293" y="368"/>
      <point x="315" y="344"/>
      <point x="315" y="309" type="curve" smooth="yes"/>
      <point x="315" y="307" type="line"/>
      <point x="503" y="316" type="line"/>
      <point x="503" y="330" type="line" smooth="yes"/>
      <point x="503" y="449"/>
      <point x="405" y="528"/>
      <point x="259" y="528" type="curve" smooth="yes"/>
      <point x="112" y="528"/>
      <point x="14" y="438"/>
      <point x="14" y="304" type="curve" smooth="yes"/>
      <point x="14" y="218" type="line" smooth="yes"/>
      <point x="14" y="83"/>
      <point x="112" y="-7"/>
      <point x="259" y="-7" type="curve" smooth="yes"/>
    </contour>
  </outline>
</glyph>
<glyph name="e" format="1">
  <advance width="451"/>
  <unicode hex="0065"/>
  <outline>
    <contour>
      <point x="359" y="-7"/>
      <point x="440" y="58"/>
      <point x="439" y="177" type="curve"/>
      <point x="251" y="184" type="line"/>
      <point x="250" y="160"/>
      <point x="240" y="154"/>
      <point x="228" y="154" type="curve" smooth="yes"/>
      <point x="210" y="154"/>
      <point x="202" y="166"/>
      <point x="202" y="193" type="curve" smooth="yes"/>
      <point x="202" y="332" type="line" smooth="yes"/>
      <point x="202" y="355"/>
      <point x="210" y="367"/>
      <point x="227" y="367" type="curve" smooth="yes"/>
      <point x="243" y="367"/>
      <point x="251" y="355"/>
      <point x="251" y="332" type="curve" smooth="yes"/>
      <point x="251" y="306" type="line"/>
      <point x="130" y="306" type="line"/>
      <point x="130" y="215" type="line"/>
      <point x="439" y="215" type="line"/>
      <point x="439" y="331" type="line" smooth="yes"/>
      <point x="439" y="457"/>
      <point x="363" y="528"/>
      <point x="227" y="528" type="curve" smooth="yes"/>
      <point x="91" y="528"/>
      <point x="14" y="457"/>
      <point x="14" y="331" type="curve" smooth="yes"/>
      <point x="14" y="189" type="line" smooth="yes"/>
      <point x="14" y="64"/>
      <point x="89" y="-7"/>
      <point x="227" y="-7" type="curve" smooth="yes"/>
    </contour>
  </outline>
</glyph>
<glyph name="f" format="1">
  <advance width="318"/>
  <unicode hex="0066"/>
  <outline>
    <contour>
      <point x="242" y="0" type="line"/>
      <point x="242" y="532" type="line"/>
      <point x="242" y="552"/>
      <point x="264" y="558"/>
      <point x="286" y="558" type="curve"/>
      <point x="286" y="700" type="line"/>
      <point x="138" y="707"/>
      <point x="54" y="697"/>
      <point x="54" y="556" type="curve"/>
      <point x="54" y="0" type="line"/>
    </contour>
    <contour>
      <point x="306" y="340" type="line"/>
      <point x="306" y="500" type="line"/>
      <point x="0" y="500" type="line"/>
      <point x="0" y="340" type="line"/>
    </contour>
  </outline>
</glyph>
<glyph name="g" format="1">
  <advance width="535"/>
  <unicode hex="0067"/>
  <outline>
    <contour>
      <point x="375" y="-231"/>
      <point x="511" y="-152"/>
      <point x="511" y="34" type="curve" smooth="yes"/>
      <point x="511" y="520" type="line"/>
      <point x="323" y="520" type="line"/>
      <point x="323" y="21" type="line" smooth="yes"/>
      <point x="323" y="-41"/>
      <point x="251" y="-62"/>
      <point x="111" y="-44" type="curve"/>
      <point x="111" y="-200" type="line"/>
    </contour>
    <component base="b.bowl" xOffset="382" xScale="-1"/>
  </outline>
</glyph>
<glyph name="h" format="1">
  <advance width="470"/>
  <unicode hex="0068"/>
  <outline>
    <contour>
      <point x="452" y="1" type="line"/>
      <point x="452" y="358" type="line" smooth="yes"/>
      <point x="452" y="465"/>
      <point x="395" y="504"/>
      <point x="315" y="504" type="curve" smooth="yes"/>
      <point x="202" y="504"/>
      <point x="135" y="427"/>
      <point x="135" y="322" type="curve"/>
      <point x="206" y="322" type="line"/>
      <point x="206" y="342"/>
      <point x="218" y="354"/>
      <point x="235" y="354" type="curve" smooth="yes"/>
      <point x="252" y="354"/>
      <point x="264" y="342"/>
      <point x="264" y="322" type="curve" smooth="yes"/>
      <point x="264" y="1" type="line"/>
    </contour>
    <contour>
      <point x="206" y="1" type="line"/>
      <point x="206" y="700" type="line"/>
      <point x="18" y="700" type="line"/>
      <point x="18" y="1" type="line"/>
    </contour>
  </outline>
</glyph>
<glyph name="i" format="1">
  <advance width="244"/>
  <unicode hex="0069"/>
  <outline>
    <contour>
      <point x="216" y="0" type="line"/>
      <point x="216" y="520" type="line"/>
      <point x="28" y="520" type="line"/>
      <point x="28" y="0" type="line"/>
    </contour>
    <contour>
      <point x="187" y="536"/>
      <point x="230" y="578"/>
      <point x="230" y="641" type="curve" smooth="yes"/>
      <point x="230" y="704"/>
      <point x="187" y="746"/>
      <point x="122" y="746" type="curve" smooth="yes"/>
      <point x="58" y="746"/>
      <point x="14" y="704"/>
      <point x="14" y="641" type="curve" smooth="yes"/>
      <point x="14" y="578"/>
      <point x="58" y="536"/>
      <point x="122" y="536" type="curve" smooth="yes"/>
    </contour>
  </outline>
</glyph>
<glyph name="j" format="1">
  <advance width="254"/>
  <unicode hex="006A"/>
  <outline>
    <contour>
      <point x="219" y="-210"/>
      <point x="224" y="-120"/>
      <point x="224" y="29" type="curve" smooth="yes"/>
      <point x="224" y="520" type="line"/>
      <point x="36" y="520" type="line"/>
      <point x="36" y="29" type="line" smooth="yes"/>
      <point x="36" y="-19"/>
      <point x="21" y="-49"/>
      <point x="-60" y="-41" type="curve"/>
      <point x="-60" y="-201" type="line"/>
    </contour>
    <contour>
      <point x="191" y="540"/>
      <point x="234" y="587"/>
      <point x="234" y="645" type="curve" smooth="yes"/>
      <point x="234" y="703"/>
      <point x="182" y="749"/>
      <point x="130" y="749" type="curve" smooth="yes"/>
      <point x="77" y="749"/>
      <point x="26" y="703"/>
      <point x="26" y="645" type="curve" smooth="yes"/>
      <point x="26" y="587"/>
      <point x="68" y="540"/>
      <point x="130" y="540" type="curve" smooth="yes"/>
    </contour>
  </outline>
</glyph>
<glyph name="k" format="1">
  <advance width="543"/>
  <unicode hex="006B"/>
  <outline>
    <contour>
      <point x="212" y="0" type="line"/>
      <point x="212" y="149" type="line"/>
      <point x="252" y="205" type="line"/>
      <point x="340" y="0" type="line"/>
      <point x="534" y="0" type="line"/>
      <point x="380" y="325" type="line"/>
      <point x="524" y="520" type="line"/>
      <point x="310" y="520" type="line"/>
      <point x="212" y="378" type="line"/>
      <point x="212" y="700" type="line"/>
      <point x="24" y="700" type="line"/>
      <point x="24" y="0" type="line"/>
    </contour>
  </outline>
</glyph>
<glyph name="l" format="1">
  <advance width="216"/>
  <unicode hex="006C"/>
  <outline>
    <contour>
      <point x="202" y="0" type="line"/>
      <point x="202" y="700" type="line"/>
      <point x="14" y="700" type="line"/>
      <point x="14" y="0" type="line"/>
    </contour>
  </outline>
</glyph>
<glyph name="m" format="1">
  <advance width="803"/>
  <unicode hex="006D"/>
  <outline>
    <contour>
      <point x="204" y="0" type="line"/>
      <point x="204" y="520" type="line"/>
      <point x="16" y="520" type="line"/>
      <point x="16" y="0" type="line"/>
    </contour>
    <contour>
      <point x="496" y="0" type="line"/>
      <point x="496" y="348" type="line" smooth="yes"/>
      <point x="496" y="459"/>
      <point x="422" y="528"/>
      <point x="304" y="528" type="curve" smooth="yes"/>
      <point x="226" y="528"/>
      <point x="144" y="470"/>
      <point x="145" y="310" type="curve"/>
      <point x="204" y="300" type="line"/>
      <point x="204" y="340"/>
      <point x="226" y="367"/>
      <point x="258" y="367" type="curve" smooth="yes"/>
      <point x="288" y="367"/>
      <point x="308" y="340"/>
      <point x="308" y="300" type="curve" smooth="yes"/>
      <point x="308" y="0" type="line"/>
    </contour>
    <contour>
      <point x="789" y="0" type="line"/>
      <point x="789" y="348" type="line" smooth="yes"/>
      <point x="789" y="459"/>
      <point x="714" y="528"/>
      <point x="596" y="528" type="curve" smooth="yes"/>
      <point x="518" y="528"/>
      <point x="436" y="470"/>
      <point x="437" y="310" type="curve"/>
      <point x="496" y="300" type="line"/>
      <point x="496" y="340"/>
      <point x="518" y="367"/>
      <point x="550" y="367" type="curve" smooth="yes"/>
      <point x="581" y="367"/>
      <point x="601" y="340"/>
      <point x="601" y="300" type="curve" smooth="yes"/>
      <point x="601" y="0" type="line"/>
    </contour>
  </outline>
</glyph>
<glyph name="n" format="1">
  <advance width="473"/>
  <unicode hex="006E"/>
  <outline>
    <contour>
      <point x="455" y="1" type="line"/>
      <point x="455" y="358" type="line" smooth="yes"/>
      <point x="455" y="465"/>
      <point x="398" y="504"/>
      <point x="318" y="504" type="curve" smooth="yes"/>
      <point x="205" y="504"/>
      <point x="138" y="427"/>
      <point x="138" y="322" type="curve"/>
      <point x="209" y="322" type="line"/>
      <point x="209" y="342"/>
      <point x="221" y="355"/>
      <point x="238" y="355" type="curve" smooth="yes"/>
      <point x="255" y="355"/>
      <point x="267" y="342"/>
      <point x="267" y="322" type="curve" smooth="yes"/>
      <point x="267" y="1" type="line"/>
    </contour>
    <contour>
      <point x="209" y="1" type="line"/>
      <point x="209" y="501" type="line"/>
      <point x="21" y="501" type="line"/>
      <point x="21" y="1" type="line"/>
    </contour>
  </outline>
</glyph>
<glyph name="o" format="1">
  <advance width="468"/>
  <unicode hex="006F"/>
  <outline>
    <contour>
      <point x="368" y="-8"/>
      <point x="458" y="68"/>
      <point x="458" y="181" type="curve" smooth="yes"/>
      <point x="458" y="319" type="line" smooth="yes"/>
      <point x="458" y="432"/>
      <point x="368" y="508"/>
      <point x="234" y="508" type="curve" smooth="yes"/>
      <point x="100" y="508"/>
      <point x="10" y="432"/>
      <point x="10" y="319" type="curve" smooth="yes"/>
      <point x="10" y="181" type="line" smooth="yes"/>
      <point x="10" y="68"/>
      <point x="100" y="-8"/>
      <point x="234" y="-8" type="curve" smooth="yes"/>
    </contour>
    <contour>
      <point x="217" y="142"/>
      <point x="205" y="155"/>
      <point x="205" y="174" type="curve" smooth="yes"/>
      <point x="205" y="326" type="line" smooth="yes"/>
      <point x="205" y="345"/>
      <point x="217" y="358"/>
      <point x="234" y="358" type="curve" smooth="yes"/>
      <point x="251" y="358"/>
      <point x="263" y="345"/>
      <point x="263" y="326" type="curve" smooth="yes"/>
      <point x="263" y="174" type="line" smooth="yes"/>
      <point x="263" y="155"/>
      <point x="251" y="142"/>
      <point x="234" y="142" type="curve" smooth="yes"/>
    </contour>
  </outline>
</glyph>
<glyph name="p" format="1">
  <advance width="473"/>
  <unicode hex="0070"/>
  <outline>
    <contour>
      <point x="378" y="-4"/>
      <point x="455" y="35"/>
      <point x="455" y="142" type="curve" smooth="yes"/>
      <point x="455" y="358" type="line" smooth="yes"/>
      <point x="455" y="465"/>
      <point x="388" y="504"/>
      <point x="308" y="504" type="curve" smooth="yes"/>
      <point x="195" y="504"/>
      <point x="128" y="427"/>
      <point x="128" y="322" type="curve" smooth="yes"/>
      <point x="128" y="178" type="line" smooth="yes"/>
      <point x="128" y="73"/>
      <point x="185" y="-4"/>
      <point x="298" y="-4" type="curve" smooth="yes"/>
    </contour>
    <contour>
      <point x="209" y="-201" type="line"/>
      <point x="209" y="499" type="line"/>
      <point x="21" y="499" type="line"/>
      <point x="21" y="-201" type="line"/>
    </contour>
    <contour>
      <point x="221" y="146"/>
      <point x="209" y="158"/>
      <point x="209" y="178" type="curve"/>
      <point x="209" y="322" type="line"/>
      <point x="209" y="342"/>
      <point x="221" y="354"/>
      <point x="238" y="354" type="curve" smooth="yes"/>
      <point x="255" y="354"/>
      <point x="267" y="342"/>
      <point x="267" y="322" type="curve" smooth="yes"/>
      <point x="267" y="178" type="line" smooth="yes"/>
      <point x="267" y="158"/>
      <point x="255" y="146"/>
      <point x="238" y="146" type="curve" smooth="yes"/>
    </contour>
  </outline>
</glyph>
<glyph name="q" format="1">
  <advance width="458"/>
  <unicode hex="0071"/>
  <outline>
    <contour>
      <point x="282" y="-4"/>
      <point x="339" y="73"/>
      <point x="339" y="178" type="curve" smooth="yes"/>
      <point x="339" y="322" type="line" smooth="yes"/>
      <point x="339" y="427"/>
      <point x="272" y="504"/>
      <point x="159" y="504" type="curve" smooth="yes"/>
      <point x="79" y="504"/>
      <point x="12" y="465"/>
      <point x="12" y="358" type="curve" smooth="yes"/>
      <point x="12" y="142" type="line" smooth="yes"/>
      <point x="12" y="35"/>
      <point x="89" y="-4"/>
      <point x="169" y="-4" type="curve" smooth="yes"/>
    </contour>
    <contour>
      <point x="212" y="146"/>
      <point x="200" y="158"/>
      <point x="200" y="178" type="curve" smooth="yes"/>
      <point x="200" y="322" type="line" smooth="yes"/>
      <point x="200" y="342"/>
      <point x="212" y="354"/>
      <point x="229" y="354" type="curve" smooth="yes"/>
      <point x="246" y="354"/>
      <point x="258" y="342"/>
      <point x="258" y="322" type="curve"/>
      <point x="258" y="178" type="line"/>
      <point x="258" y="158"/>
      <point x="246" y="146"/>
      <point x="229" y="146" type="curve" smooth="yes"/>
    </contour>
    <contour>
      <point x="446" y="-201" type="line"/>
      <point x="446" y="499" type="line"/>
      <point x="258" y="499" type="line"/>
      <point x="258" y="-201" type="line"/>
    </contour>
  </outline>
</glyph>
<glyph name="r" format="1">
  <advance width="354"/>
  <unicode hex="0072"/>
  <outline>
    <contour>
      <point x="209" y="272" type="line"/>
      <point x="209" y="293"/>
      <point x="226" y="317"/>
      <point x="249" y="326" type="curve" smooth="yes"/>
      <point x="275" y="336"/>
      <point x="312" y="332"/>
      <point x="322" y="324" type="curve"/>
      <point x="348" y="485" type="line"/>
      <point x="329" y="505"/>
      <point x="313" y="506"/>
      <point x="303" y="506" type="curve" smooth="yes"/>
      <point x="186" y="506"/>
      <point x="158" y="371"/>
      <point x="158" y="272" type="curve"/>
    </contour>
    <contour>
      <point x="209" y="1" type="line"/>
      <point x="209" y="501" type="line"/>
      <point x="21" y="501" type="line"/>
      <point x="21" y="1" type="line"/>
    </contour>
  </outline>
</glyph>
<glyph name="s" format="1">
  <advance width="435"/>
  <unicode hex="0073"/>
  <outline>
    <contour>
      <point x="349" y="-8"/>
      <point x="425" y="46"/>
      <point x="425" y="137" type="curve" smooth="yes"/>
      <point x="425" y="212"/>
      <point x="366" y="274"/>
      <point x="265" y="304" type="curve" smooth="yes"/>
      <point x="221" y="317"/>
      <point x="195" y="333"/>
      <point x="195" y="344" type="curve" smooth="yes"/>
      <point x="195" y="356"/>
      <point x="202" y="363"/>
      <point x="215" y="363" type="curve" smooth="yes"/>
      <point x="229" y="363"/>
      <point x="238" y="353"/>
      <point x="238" y="337" type="curve" smooth="yes"/>
      <point x="238" y="336" type="line"/>
      <point x="413" y="336" type="line"/>
      <point x="413" y="336" type="line" smooth="yes"/>
      <point x="413" y="457"/>
      <point x="339" y="528"/>
      <point x="214" y="528" type="curve" smooth="yes"/>
      <point x="89" y="528"/>
      <point x="15" y="469"/>
      <point x="15" y="368" type="curve" smooth="yes"/>
      <point x="15" y="282"/>
      <point x="71" y="218"/>
      <point x="167" y="195" type="curve" smooth="yes"/>
      <point x="207" y="185"/>
      <point x="230" y="170"/>
      <point x="230" y="155" type="curve" smooth="yes"/>
      <point x="230" y="142"/>
      <point x="223" y="134"/>
      <point x="212" y="134" type="curve" smooth="yes"/>
      <point x="198" y="134"/>
      <point x="189" y="145"/>
      <point x="189" y="165" type="curve" smooth="yes"/>
      <point x="189" y="166" type="line"/>
      <point x="10" y="166" type="line"/>
      <point x="10" y="166" type="line"/>
      <point x="10" y="56"/>
      <point x="87" y="-8"/>
      <point x="219" y="-8" type="curve" smooth="yes"/>
    </contour>
  </outline>
</glyph>
<glyph name="t" format="1">
  <advance width="330"/>
  <unicode hex="0074"/>
  <outline>
    <contour>
      <point x="309" y="0" type="line"/>
      <point x="309" y="169" type="line"/>
      <point x="298" y="169" type="line"/>
      <point x="243" y="169"/>
      <point x="238" y="180"/>
      <point x="238" y="229" type="curve" smooth="yes"/>
      <point x="242" y="646" type="line"/>
      <point x="54" y="646" type="line"/>
      <point x="50" y="156" type="line" smooth="yes"/>
      <point x="49" y="5"/>
      <point x="107" y="-14"/>
      <point x="288" y="0" type="curve"/>
    </contour>
    <contour>
      <point x="318" y="340" type="line"/>
      <point x="318" y="500" type="line"/>
      <point x="0" y="500" type="line"/>
      <point x="0" y="340" type="line"/>
    </contour>
  </outline>
</glyph>
<glyph name="v" format="1">
  <advance width="463"/>
  <unicode hex="0076"/>
  <outline>
    <contour>
      <point x="329" y="-2" type="line"/>
      <point x="463" y="498" type="line"/>
      <point x="277" y="500" type="line"/>
      <point x="233" y="232" type="line"/>
      <point x="189" y="500" type="line"/>
      <point x="0" y="500" type="line"/>
      <point x="134" y="0" type="line"/>
    </contour>
  </outline>
</glyph>
<glyph name="w" format="1">
  <advance width="798"/>
  <unicode hex="0077"/>
  <outline>
    <contour>
      <point x="358" y="0" type="line"/>
      <point x="396" y="223" type="line"/>
      <point x="450" y="0" type="line"/>
      <point x="637" y="0" type="line"/>
      <point x="789" y="518" type="line"/>
      <point x="603" y="520" type="line"/>
      <point x="547" y="251" type="line"/>
      <point x="481" y="519" type="line"/>
      <point x="310" y="519" type="line"/>
      <point x="252" y="251" type="line"/>
      <point x="197" y="520" type="line"/>
      <point x="9" y="520" type="line"/>
      <point x="162" y="0" type="line"/>
    </contour>
  </outline>
</glyph>
<glyph name="x" format="1">
  <advance width="544"/>
  <unicode hex="0078"/>
  <outline>
    <contour>
      <point x="216" y="0" type="line"/>
      <point x="272" y="115" type="line"/>
      <point x="328" y="0" type="line"/>
      <point x="532" y="0" type="line"/>
      <point x="377" y="260" type="line"/>
      <point x="532" y="520" type="line"/>
      <point x="328" y="520" type="line"/>
      <point x="272" y="410" type="line"/>
      <point x="216" y="520" type="line"/>
      <point x="12" y="520" type="line"/>
      <point x="167" y="260" type="line"/>
      <point x="12" y="0" type="line"/>
    </contour>
  </outline>
</glyph>
<glyph name="y" format="1">
  <advance width="468"/>
  <unicode hex="0079"/>
  <outline>
    <contour>
      <point x="43" y="-199" type="line"/>
      <point x="250" y="-199"/>
      <point x="287" y="-140"/>
      <point x="326" y="-2" type="curve"/>
      <point x="456" y="518" type="line"/>
      <point x="254" y="520" type="line"/>
      <point x="233" y="252" type="line"/>
      <point x="210" y="520" type="line"/>
      <point x="9" y="520" type="line"/>
      <point x="138" y="0" type="line"/>
      <point x="146" y="-40"/>
      <point x="108" y="-45"/>
      <point x="40" y="-45" type="curve"/>
      <point x="31" y="-45" type="line"/>
      <point x="31" y="-199" type="line"/>
    </contour>
  </outline>
</glyph>
<glyph name="z" format="1">
  <advance width="392"/>
  <unicode hex="007A"/>
  <outline>
    <contour>
      <point x="377" y="0" type="line"/>
      <point x="377" y="170" type="line"/>
      <point x="226" y="170" type="line"/>
      <point x="368" y="350" type="line"/>
      <point x="368" y="520" type="line"/>
      <point x="19" y="520" type="line"/>
      <point x="19" y="350" type="line"/>
      <point x="144" y="350" type="line"/>
      <point x="12" y="170" type="line"/>
      <point x="12" y="0" type="line"/>
    </contour>
  </outline>
</glyph>
<glyph name="copyright" format="1">
  <advance width="882"/>
  <unicode hex="00A9"/>
  <outline>
    <contour>
      <point x="773" y="-62"/>
      <point x="943" y="80"/>
      <point x="943" y="292" type="curve" smooth="yes"/>
      <point x="943" y="503"/>
      <point x="773" y="644"/>
      <point x="517" y="644" type="curve" smooth="yes"/>
      <point x="263" y="644"/>
      <point x="93" y="503"/>
      <point x="93" y="292" type="curve" smooth="yes"/>
      <point x="93" y="80"/>
      <point x="263" y="-62"/>
      <point x="517" y="-62" type="curve" smooth="yes"/>
    </contour>
    <contour>
      <point x="324" y="38"/>
      <point x="195" y="140"/>
      <point x="195" y="292" type="curve" smooth="yes"/>
      <point x="195" y="443"/>
      <point x="324" y="544"/>
      <point x="517" y="544" type="curve" smooth="yes"/>
      <point x="711" y="544"/>
      <point x="841" y="443"/>
      <point x="841" y="292" type="curve" smooth="yes"/>
      <point x="841" y="140"/>
      <point x="711" y="38"/>
      <point x="517" y="38" type="curve" smooth="yes"/>
    </contour>
    <component base="C" xOffset="401" yOffset="111" xScale="0.5" yScale="0.5"/>
  </outline>
</glyph>
<glyph name="registered" format="1">
  <advance width="882"/>
  <unicode hex="00AE"/>
  <outline>
    <contour>
      <point x="695" y="-62"/>
      <point x="865" y="80"/>
      <point x="865" y="292" type="curve" smooth="yes"/>
      <point x="865" y="503"/>
      <point x="695" y="644"/>
      <point x="439" y="644" type="curve" smooth="yes"/>
      <point x="185" y="644"/>
      <point x="15" y="503"/>
      <point x="15" y="292" type="curve" smooth="yes"/>
      <point x="15" y="80"/>
      <point x="185" y="-62"/>
      <point x="439" y="-62" type="curve" smooth="yes"/>
    </contour>
    <contour>
      <point x="246" y="38"/>
      <point x="117" y="140"/>
      <point x="117" y="292" type="curve" smooth="yes"/>
      <point x="117" y="443"/>
      <point x="246" y="544"/>
      <point x="439" y="544" type="curve" smooth="yes"/>
      <point x="633" y="544"/>
      <point x="763" y="443"/>
      <point x="763" y="292" type="curve" smooth="yes"/>
      <point x="763" y="140"/>
      <point x="633" y="38"/>
      <point x="439" y="38" type="curve" smooth="yes"/>
    </contour>
    <component base="R" xOffset="330" yOffset="133" xScale="0.45" yScale="0.45"/>
  </outline>
</glyph>
<glyph name="thorn" format="1">
  <advance width="519"/>
  <unicode hex="00FE"/>
  <outline>
    <contour>
      <point x="16" y="-183" type="line"/>
      <point x="204" y="-183" type="line"/>
      <point x="204" y="733" type="line"/>
      <point x="16" y="733" type="line"/>
    </contour>
    <component base="b.bowl" xOffset="145"/>
  </outline>
</glyph>
<glyph name="idotless" format="1">
  <advance width="230"/>
  <unicode hex="0131"/>
  <outline>
    <contour>
      <point x="209" y="0" type="line"/>
      <point x="209" y="520" type="line"/>
      <point x="21" y="520" type="line"/>
      <point x="21" y="0" type="line"/>
    </contour>
    <contour>
      <point x="111" y="532" type="move" name="top"/>
    </contour>
  </outline>
</glyph>
<glyph name="caron" format="1">
  <advance width="304"/>
  <unicode hex="02C7"/>
  <outline>
    <contour>
      <point x="79" y="565" type="line"/>
      <point x="222" y="565" type="line"/>
      <point x="304" y="694" type="line"/>
      <point x="187" y="694" type="line"/>
      <point x="152" y="632" type="line"/>
      <point x="117" y="694" type="line"/>
      <point x="0" y="694" type="line"/>
    </contour>
    <contour>
      <point x="152" y="520" type="move" name="_top"/>
    </contour>
  </outline>
</glyph>
<glyph name="breve" format="1">
  <advance width="222"/>
  <unicode hex="02D8"/>
  <outline>
    <contour>
      <point x="173" y="543"/>
      <point x="222" y="592"/>
      <point x="222" y="654" type="curve"/>
      <point x="147" y="654" type="line"/>
      <point x="147" y="625"/>
      <point x="133" y="606"/>
      <point x="111" y="606" type="curve" smooth="yes"/>
      <point x="89" y="606"/>
      <point x="75" y="625"/>
      <point x="75" y="654" type="curve"/>
      <point x="0" y="654" type="line"/>
      <point x="0" y="592"/>
      <point x="49" y="543"/>
      <point x="111" y="543" type="curve" smooth="yes"/>
    </contour>
    <contour>
      <point x="111" y="520" type="move" name="_top"/>
    </contour>
  </outline>
</glyph>
<glyph name="circumflexcomb" format="1">
  <advance width="304"/>
  <unicode hex="0302"/>
  <outline>
    <contour>
      <point x="92" y="565" type="line"/>
      <point x="152" y="627" type="line"/>
      <point x="212" y="565" type="line"/>
      <point x="304" y="565" type="line"/>
      <point x="222" y="694" type="line"/>
      <point x="79" y="694" type="line"/>
      <point x="0" y="565" type="line"/>
    </contour>
    <contour>
      <point x="152" y="520" type="move" name="_top"/>
    </contour>
  </outline>
</glyph>
<glyph name="tildecomb" format="1">
  <advance width="323"/>
  <unicode hex="0303"/>
  <outline>
    <contour>
      <point x="0" y="638" type="line"/>
      <point x="26" y="684"/>
      <point x="50" y="701"/>
      <point x="94" y="701" type="curve" smooth="yes"/>
      <point x="134" y="701"/>
      <point x="167" y="687"/>
      <point x="176" y="684" type="curve" smooth="yes"/>
      <point x="190" y="679"/>
      <point x="208" y="672"/>
      <point x="242" y="672" type="curve" smooth="yes"/>
      <point x="274" y="672"/>
      <point x="293" y="678"/>
      <point x="322" y="700" type="curve"/>
      <point x="323" y="611" type="line"/>
      <point x="302" y="581"/>
      <point x="284" y="560"/>
      <point x="235" y="560" type="curve" smooth="yes"/>
      <point x="200" y="560"/>
      <point x="176" y="571"/>
      <point x="153" y="578" type="curve" smooth="yes"/>
      <point x="135" y="583"/>
      <point x="111" y="587"/>
      <point x="86" y="587" type="curve" smooth="yes"/>
      <point x="51" y="587"/>
      <point x="29" y="579"/>
      <point x="1" y="548" type="curve"/>
    </contour>
    <contour>
      <point x="162" y="520" type="move" name="_top"/>
    </contour>
  </outline>
</glyph>
<glyph name="emdash" format="1">
  <advance width="431"/>
  <unicode hex="2014"/>
  <outline>
    <contour>
      <point x="419" y="165" type="line"/>
      <point x="419" y="325" type="line"/>
      <point x="12" y="325" type="line"/>
      <point x="12" y="165" type="line"/>
    </contour>
  </outline>
</glyph>
<glyph name="quoteleft" format="1">
  <advance width="231"/>
  <unicode hex="2018"/>
  <outline>
    <contour>
      <point x="188" y="700" type="line"/>
      <point x="0" y="700" type="line"/>
      <point x="83" y="460" type="line"/>
      <point x="231" y="460" type="line"/>
    </contour>
  </outline>
</glyph>
<glyph name="quotedblleft" format="1">
  <advance width="455"/>
  <unicode hex="201C"/>
  <outline>
    <contour>
      <point x="267" y="460" type="line"/>
      <point x="188" y="700" type="line"/>
      <point x="0" y="700" type="line"/>
      <point x="125" y="460" type="line"/>
    </contour>
    <contour>
      <point x="455" y="460" type="line"/>
      <point x="421" y="700" type="line"/>
      <point x="236" y="700" type="line"/>
      <point x="324" y="460" type="line"/>
    </contour>
  </outline>
</glyph>
<glyph name="a.alt" format="1">
  <advance width="449"/>
  <outline>
    <contour>
      <point x="433" y="0" type="line"/>
      <point x="433" y="520" type="line"/>
      <point x="245" y="520" type="line"/>
      <point x="245" y="0" type="line"/>
    </contour>
    <component base="b.bowl" xOffset="281" xScale="-1"/>
  </outline>
</glyph>
<glyph name="b.bowl" format="1">
  <advance width="360"/>
  <outline>
    <contour>
      <point x="267" y="-10"/>
      <point x="324" y="48"/>
      <point x="349" y="137" type="curve" smooth="yes"/>
      <point x="359" y="173"/>
      <point x="364" y="214"/>
      <point x="364" y="259" type="curve" smooth="yes"/>
      <point x="364" y="304"/>
      <point x="359" y="345"/>
      <point x="349" y="381" type="curve" smooth="yes"/>
      <point x="324" y="470"/>
      <point x="267" y="528"/>
      <point x="174" y="528" type="curve" smooth="yes"/>
      <point x="75" y="528"/>
      <point x="26" y="463"/>
      <point x="6" y="381" type="curve" smooth="yes"/>
      <point x="-3" y="344"/>
      <point x="-6" y="302"/>
      <point x="-6" y="258" type="curve" smooth="yes"/>
      <point x="-6" y="214"/>
      <point x="-3" y="174"/>
      <point x="6" y="137" type="curve" smooth="yes"/>
      <point x="26" y="55"/>
      <point x="75" y="-10"/>
      <point x="174" y="-10" type="curve" smooth="yes"/>
    </contour>
    <contour>
      <point x="101" y="147"/>
      <point x="81" y="156"/>
      <point x="70" y="178" type="curve" smooth="yes"/>
      <point x="62" y="195"/>
      <point x="59" y="213"/>
      <point x="59" y="259" type="curve" smooth="yes"/>
      <point x="59" y="297"/>
      <point x="61" y="321"/>
      <point x="70" y="340" type="curve" smooth="yes"/>
      <point x="79" y="359"/>
      <point x="98" y="371"/>
      <point x="118" y="371" type="curve" smooth="yes"/>
      <point x="136" y="371"/>
      <point x="154" y="362"/>
      <point x="165" y="339" type="curve" smooth="yes"/>
      <point x="174" y="321"/>
      <point x="176" y="293"/>
      <point x="176" y="259" type="curve" smooth="yes"/>
      <point x="176" y="224"/>
      <point x="174" y="197"/>
      <point x="165" y="178" type="curve" smooth="yes"/>
      <point x="156" y="159"/>
      <point x="137" y="147"/>
      <point x="118" y="147" type="curve" smooth="yes"/>
    </contour>
  </outline>
</glyph>
<glyph name="n.curve" format="1">
  <advance width="332"/>
  <outline>
    <contour>
      <point x="340" y="0" type="line"/>
      <point x="340" y="348" type="line" smooth="yes"/>
      <point x="340" y="459"/>
      <point x="265" y="528"/>
      <point x="147" y="528" type="curve" smooth="yes"/>
      <point x="69" y="528"/>
      <point x="-21" y="470"/>
      <point x="-20" y="310" type="curve"/>
      <point x="39" y="310" type="line"/>
      <point x="39" y="344"/>
      <point x="62" y="367"/>
      <point x="96" y="367" type="curve" smooth="yes"/>
      <point x="130" y="367"/>
      <point x="152" y="344"/>
      <point x="152" y="310" type="curve" smooth="yes"/>
      <point x="152" y="0" type="line"/>
    </contour>
  </outline>
</glyph>
